<svg xmlns="http://www.w3.org/2000/svg" xmlns:xlink="http://www.w3.org/1999/xlink" zoomAndPan="magnify" viewBox="9.63 27.62 279.5 94.5" preserveAspectRatio="xMidYMid meet" version="1.0"><defs><g></g><clipPath id="45c0cfdee2"><rect x="0" width="169" y="0" height="33"></rect></clipPath><clipPath id="08851bcba9"><path d="M 1 1.042969 L 84.917969 1.042969 L 84.917969 24.753906 L 1 24.753906 Z M 1 1.042969 " clip-rule="nonzero"></path></clipPath><clipPath id="bb952d7884"><path d="M 2.5 1.042969 L 83.414062 1.042969 C 84.242188 1.042969 84.914062 1.714844 84.914062 2.542969 L 84.914062 23.253906 C 84.914062 24.082031 84.242188 24.753906 83.414062 24.753906 L 2.5 24.753906 C 1.671875 24.753906 1 24.082031 1 23.253906 L 1 2.542969 C 1 1.714844 1.671875 1.042969 2.5 1.042969 Z M 2.5 1.042969 " clip-rule="nonzero"></path></clipPath><clipPath id="3da93ce499"><path d="M 0 0.0429688 L 83.917969 0.0429688 L 83.917969 23.753906 L 0 23.753906 Z M 0 0.0429688 " clip-rule="nonzero"></path></clipPath><clipPath id="85399f24c6"><path d="M 1.5 0.0429688 L 82.414062 0.0429688 C 83.242188 0.0429688 83.914062 0.714844 83.914062 1.542969 L 83.914062 22.253906 C 83.914062 23.082031 83.242188 23.753906 82.414062 23.753906 L 1.5 23.753906 C 0.671875 23.753906 0 23.082031 0 22.253906 L 0 1.542969 C 0 0.714844 0.671875 0.0429688 1.5 0.0429688 Z M 1.5 0.0429688 " clip-rule="nonzero"></path></clipPath><clipPath id="9312dfce54"><rect x="0" width="84" y="0" height="24"></rect></clipPath><clipPath id="e2114a90da"><path d="M 1 31.339844 L 63.335938 31.339844 L 63.335938 55.050781 L 1 55.050781 Z M 1 31.339844 " clip-rule="nonzero"></path></clipPath><clipPath id="752c8d2835"><path d="M 2.5 31.339844 L 61.753906 31.339844 C 62.582031 31.339844 63.253906 32.011719 63.253906 32.839844 L 63.253906 53.550781 C 63.253906 54.378906 62.582031 55.050781 61.753906 55.050781 L 2.5 55.050781 C 1.671875 55.050781 1 54.378906 1 53.550781 L 1 32.839844 C 1 32.011719 1.671875 31.339844 2.5 31.339844 Z M 2.5 31.339844 " clip-rule="nonzero"></path></clipPath><clipPath id="87c652df3b"><path d="M 0 0.339844 L 62.28125 0.339844 L 62.28125 24.050781 L 0 24.050781 Z M 0 0.339844 " clip-rule="nonzero"></path></clipPath><clipPath id="a0bccdb4e6"><path d="M 1.5 0.339844 L 60.753906 0.339844 C 61.582031 0.339844 62.253906 1.011719 62.253906 1.839844 L 62.253906 22.550781 C 62.253906 23.378906 61.582031 24.050781 60.753906 24.050781 L 1.5 24.050781 C 0.671875 24.050781 0 23.378906 0 22.550781 L 0 1.839844 C 0 1.011719 0.671875 0.339844 1.5 0.339844 Z M 1.5 0.339844 " clip-rule="nonzero"></path></clipPath><clipPath id="dd5781e5d0"><rect x="0" width="63" y="0" height="25"></rect></clipPath><clipPath id="b61250cce5"><path d="M 1 61.246094 L 84.917969 61.246094 L 84.917969 84.957031 L 1 84.957031 Z M 1 61.246094 " clip-rule="nonzero"></path></clipPath><clipPath id="801cd9075b"><path d="M 2.5 61.246094 L 83.414062 61.246094 C 84.242188 61.246094 84.914062 61.917969 84.914062 62.746094 L 84.914062 83.457031 C 84.914062 84.285156 84.242188 84.957031 83.414062 84.957031 L 2.5 84.957031 C 1.671875 84.957031 1 84.285156 1 83.457031 L 1 62.746094 C 1 61.917969 1.671875 61.246094 2.5 61.246094 Z M 2.5 61.246094 " clip-rule="nonzero"></path></clipPath><clipPath id="aaeb21fb39"><path d="M 0 0.246094 L 83.917969 0.246094 L 83.917969 23.957031 L 0 23.957031 Z M 0 0.246094 " clip-rule="nonzero"></path></clipPath><clipPath id="1c25ede90c"><path d="M 1.5 0.246094 L 82.414062 0.246094 C 83.242188 0.246094 83.914062 0.917969 83.914062 1.746094 L 83.914062 22.457031 C 83.914062 23.285156 83.242188 23.957031 82.414062 23.957031 L 1.5 23.957031 C 0.671875 23.957031 0 23.285156 0 22.457031 L 0 1.746094 C 0 0.917969 0.671875 0.246094 1.5 0.246094 Z M 1.5 0.246094 " clip-rule="nonzero"></path></clipPath><clipPath id="8f24efb08f"><rect x="0" width="84" y="0" height="24"></rect></clipPath><clipPath id="f1b68e8795"><path d="M 5.746094 10.476562 L 10.996094 10.476562 L 10.996094 15.953125 L 5.746094 15.953125 Z M 5.746094 10.476562 " clip-rule="nonzero"></path></clipPath><clipPath id="df260b549f"><path d="M 8.371094 10.476562 C 6.917969 10.476562 5.746094 11.699219 5.746094 13.203125 C 5.746094 14.710938 6.917969 15.933594 8.371094 15.933594 C 9.820312 15.933594 10.996094 14.710938 10.996094 13.203125 C 10.996094 11.699219 9.820312 10.476562 8.371094 10.476562 Z M 8.371094 10.476562 " clip-rule="nonzero"></path></clipPath><clipPath id="3f4e5629ed"><path d="M 0.746094 0.476562 L 5.996094 0.476562 L 5.996094 5.953125 L 0.746094 5.953125 Z M 0.746094 0.476562 " clip-rule="nonzero"></path></clipPath><clipPath id="0fb1e9e45c"><path d="M 3.371094 0.476562 C 1.917969 0.476562 0.746094 1.699219 0.746094 3.203125 C 0.746094 4.710938 1.917969 5.933594 3.371094 5.933594 C 4.820312 5.933594 5.996094 4.710938 5.996094 3.203125 C 5.996094 1.699219 4.820312 0.476562 3.371094 0.476562 Z M 3.371094 0.476562 " clip-rule="nonzero"></path></clipPath><clipPath id="047d7bb9b1"><rect x="0" width="6" y="0" height="6"></rect></clipPath><clipPath id="9785104084"><path d="M 13.042969 10.476562 L 18.292969 10.476562 L 18.292969 15.953125 L 13.042969 15.953125 Z M 13.042969 10.476562 " clip-rule="nonzero"></path></clipPath><clipPath id="159965d91b"><path d="M 15.667969 10.476562 C 14.21875 10.476562 13.042969 11.699219 13.042969 13.203125 C 13.042969 14.710938 14.21875 15.933594 15.667969 15.933594 C 17.117188 15.933594 18.292969 14.710938 18.292969 13.203125 C 18.292969 11.699219 17.117188 10.476562 15.667969 10.476562 Z M 15.667969 10.476562 " clip-rule="nonzero"></path></clipPath><clipPath id="a4faa8ef0a"><path d="M 0.0429688 0.476562 L 5.292969 0.476562 L 5.292969 5.953125 L 0.0429688 5.953125 Z M 0.0429688 0.476562 " clip-rule="nonzero"></path></clipPath><clipPath id="1c4358e8fe"><path d="M 2.667969 0.476562 C 1.21875 0.476562 0.0429688 1.699219 0.0429688 3.203125 C 0.0429688 4.710938 1.21875 5.933594 2.667969 5.933594 C 4.117188 5.933594 5.292969 4.710938 5.292969 3.203125 C 5.292969 1.699219 4.117188 0.476562 2.667969 0.476562 Z M 2.667969 0.476562 " clip-rule="nonzero"></path></clipPath><clipPath id="edb32c0fdb"><rect x="0" width="6" y="0" height="6"></rect></clipPath><clipPath id="4b7b9c061f"><rect x="0" width="86" y="0" height="86"></rect></clipPath></defs><g transform="matrix(1, 0, 0, 1, 117, 60)"><g clip-path="url(#45c0cfdee2)"><g fill="#2e2e2e" fill-opacity="1"><g transform="translate(0.471793, 23.873376)"><g><path d="M 7.71875 0.265625 C 7.039062 0.265625 6.351562 0.210938 5.65625 0.109375 C 4.96875 0.00390625 4.3125 -0.140625 3.6875 -0.328125 C 3.0625 -0.523438 2.5 -0.765625 2 -1.046875 C 1.65625 -1.242188 1.410156 -1.492188 1.265625 -1.796875 C 1.117188 -2.109375 1.066406 -2.421875 1.109375 -2.734375 C 1.148438 -3.054688 1.269531 -3.34375 1.46875 -3.59375 C 1.664062 -3.84375 1.921875 -4 2.234375 -4.0625 C 2.546875 -4.132812 2.890625 -4.078125 3.265625 -3.890625 C 3.921875 -3.523438 4.632812 -3.253906 5.40625 -3.078125 C 6.175781 -2.898438 6.945312 -2.8125 7.71875 -2.8125 C 8.875 -2.8125 9.695312 -2.988281 10.1875 -3.34375 C 10.6875 -3.707031 10.9375 -4.160156 10.9375 -4.703125 C 10.9375 -5.160156 10.757812 -5.523438 10.40625 -5.796875 C 10.0625 -6.066406 9.453125 -6.300781 8.578125 -6.5 L 5.875 -7.0625 C 4.34375 -7.382812 3.207031 -7.929688 2.46875 -8.703125 C 1.726562 -9.472656 1.359375 -10.488281 1.359375 -11.75 C 1.359375 -12.539062 1.523438 -13.257812 1.859375 -13.90625 C 2.191406 -14.5625 2.660156 -15.128906 3.265625 -15.609375 C 3.867188 -16.085938 4.585938 -16.453125 5.421875 -16.703125 C 6.265625 -16.960938 7.1875 -17.09375 8.1875 -17.09375 C 9.082031 -17.09375 9.957031 -16.984375 10.8125 -16.765625 C 11.675781 -16.554688 12.429688 -16.242188 13.078125 -15.828125 C 13.398438 -15.640625 13.617188 -15.394531 13.734375 -15.09375 C 13.859375 -14.800781 13.898438 -14.507812 13.859375 -14.21875 C 13.816406 -13.925781 13.695312 -13.664062 13.5 -13.4375 C 13.300781 -13.21875 13.050781 -13.078125 12.75 -13.015625 C 12.445312 -12.953125 12.082031 -13.023438 11.65625 -13.234375 C 11.125 -13.492188 10.5625 -13.6875 9.96875 -13.8125 C 9.382812 -13.945312 8.785156 -14.015625 8.171875 -14.015625 C 7.492188 -14.015625 6.921875 -13.925781 6.453125 -13.75 C 5.984375 -13.570312 5.625 -13.320312 5.375 -13 C 5.132812 -12.6875 5.015625 -12.320312 5.015625 -11.90625 C 5.015625 -11.445312 5.179688 -11.070312 5.515625 -10.78125 C 5.847656 -10.5 6.429688 -10.269531 7.265625 -10.09375 L 9.953125 -9.53125 C 11.515625 -9.195312 12.675781 -8.65625 13.4375 -7.90625 C 14.207031 -7.164062 14.59375 -6.191406 14.59375 -4.984375 C 14.59375 -4.191406 14.429688 -3.472656 14.109375 -2.828125 C 13.785156 -2.179688 13.320312 -1.628906 12.71875 -1.171875 C 12.113281 -0.710938 11.390625 -0.359375 10.546875 -0.109375 C 9.703125 0.140625 8.757812 0.265625 7.71875 0.265625 Z M 7.71875 0.265625 "></path></g></g></g><g fill="#2e2e2e" fill-opacity="1"><g transform="translate(15.766098, 23.873376)"><g><path d="M 3.421875 0.21875 C 2.878906 0.21875 2.460938 0.0664062 2.171875 -0.234375 C 1.890625 -0.535156 1.75 -0.957031 1.75 -1.5 L 1.75 -15.328125 C 1.75 -15.867188 1.898438 -16.289062 2.203125 -16.59375 C 2.515625 -16.894531 2.941406 -17.046875 3.484375 -17.046875 C 3.960938 -17.046875 4.335938 -16.953125 4.609375 -16.765625 C 4.890625 -16.585938 5.148438 -16.273438 5.390625 -15.828125 L 10.90625 -5.75 L 10.09375 -5.75 L 15.609375 -15.828125 C 15.847656 -16.273438 16.109375 -16.585938 16.390625 -16.765625 C 16.671875 -16.953125 17.039062 -17.046875 17.5 -17.046875 C 18.039062 -17.046875 18.457031 -16.894531 18.75 -16.59375 C 19.050781 -16.289062 19.203125 -15.867188 19.203125 -15.328125 L 19.203125 -1.5 C 19.203125 -0.957031 19.054688 -0.535156 18.765625 -0.234375 C 18.484375 0.0664062 18.070312 0.21875 17.53125 0.21875 C 16.988281 0.21875 16.566406 0.0664062 16.265625 -0.234375 C 15.972656 -0.535156 15.828125 -0.957031 15.828125 -1.5 L 15.828125 -11.171875 L 16.359375 -11.171875 L 11.90625 -3.21875 C 11.71875 -2.914062 11.515625 -2.6875 11.296875 -2.53125 C 11.085938 -2.382812 10.804688 -2.3125 10.453125 -2.3125 C 10.109375 -2.3125 9.820312 -2.390625 9.59375 -2.546875 C 9.375 -2.710938 9.175781 -2.9375 9 -3.21875 L 4.515625 -11.203125 L 5.078125 -11.203125 L 5.078125 -1.5 C 5.078125 -0.957031 4.9375 -0.535156 4.65625 -0.234375 C 4.382812 0.0664062 3.972656 0.21875 3.421875 0.21875 Z M 3.421875 0.21875 "></path></g></g></g><g fill="#2e2e2e" fill-opacity="1"><g transform="translate(36.667524, 23.873376)"><g><path d="M 3.625 0 C 3.007812 0 2.53125 -0.164062 2.1875 -0.5 C 1.851562 -0.832031 1.6875 -1.3125 1.6875 -1.9375 L 1.6875 -14.890625 C 1.6875 -15.515625 1.851562 -15.992188 2.1875 -16.328125 C 2.53125 -16.660156 3.007812 -16.828125 3.625 -16.828125 L 9.40625 -16.828125 C 10.601562 -16.828125 11.625 -16.648438 12.46875 -16.296875 C 13.3125 -15.953125 13.953125 -15.453125 14.390625 -14.796875 C 14.828125 -14.148438 15.046875 -13.375 15.046875 -12.46875 C 15.046875 -11.457031 14.757812 -10.601562 14.1875 -9.90625 C 13.613281 -9.207031 12.820312 -8.738281 11.8125 -8.5 L 11.8125 -8.875 C 12.976562 -8.675781 13.882812 -8.222656 14.53125 -7.515625 C 15.175781 -6.804688 15.5 -5.882812 15.5 -4.75 C 15.5 -3.25 14.976562 -2.082031 13.9375 -1.25 C 12.90625 -0.414062 11.484375 0 9.671875 0 Z M 5.234375 -2.75 L 9.171875 -2.75 C 10.117188 -2.75 10.816406 -2.9375 11.265625 -3.3125 C 11.710938 -3.6875 11.9375 -4.238281 11.9375 -4.96875 C 11.9375 -5.695312 11.710938 -6.242188 11.265625 -6.609375 C 10.816406 -6.972656 10.117188 -7.15625 9.171875 -7.15625 L 5.234375 -7.15625 Z M 5.234375 -9.90625 L 8.765625 -9.90625 C 9.679688 -9.90625 10.363281 -10.078125 10.8125 -10.421875 C 11.257812 -10.773438 11.484375 -11.304688 11.484375 -12.015625 C 11.484375 -12.691406 11.257812 -13.207031 10.8125 -13.5625 C 10.363281 -13.914062 9.679688 -14.09375 8.765625 -14.09375 L 5.234375 -14.09375 Z M 5.234375 -9.90625 "></path></g></g></g><g fill="#2e2e2e" fill-opacity="1"><g transform="translate(53.250276, 23.873376)"><g></g></g></g><g fill="#2e2e2e" fill-opacity="1"><g transform="translate(59.911356, 23.873376)"><g><path d="M 3.15625 0 C 2.800781 0 2.53125 -0.0859375 2.34375 -0.265625 C 2.164062 -0.453125 2.078125 -0.722656 2.078125 -1.078125 L 2.078125 -15.75 C 2.078125 -16.101562 2.164062 -16.367188 2.34375 -16.546875 C 2.53125 -16.734375 2.800781 -16.828125 3.15625 -16.828125 L 12.03125 -16.828125 C 12.300781 -16.828125 12.507812 -16.753906 12.65625 -16.609375 C 12.800781 -16.472656 12.875 -16.273438 12.875 -16.015625 C 12.875 -15.742188 12.800781 -15.535156 12.65625 -15.390625 C 12.507812 -15.253906 12.300781 -15.1875 12.03125 -15.1875 L 3.984375 -15.1875 L 3.984375 -9.359375 L 11.53125 -9.359375 C 11.800781 -9.359375 12.007812 -9.289062 12.15625 -9.15625 C 12.300781 -9.019531 12.375 -8.816406 12.375 -8.546875 C 12.375 -8.273438 12.300781 -8.066406 12.15625 -7.921875 C 12.007812 -7.785156 11.800781 -7.71875 11.53125 -7.71875 L 3.984375 -7.71875 L 3.984375 -1.640625 L 12.03125 -1.640625 C 12.300781 -1.640625 12.507812 -1.566406 12.65625 -1.421875 C 12.800781 -1.285156 12.875 -1.085938 12.875 -0.828125 C 12.875 -0.566406 12.800781 -0.363281 12.65625 -0.21875 C 12.507812 -0.0703125 12.300781 0 12.03125 0 Z M 3.15625 0 "></path></g></g></g><g fill="#2e2e2e" fill-opacity="1"><g transform="translate(73.630813, 23.873376)"><g><path d="M 5.734375 0.21875 C 5.015625 0.21875 4.289062 0.128906 3.5625 -0.046875 C 2.84375 -0.222656 2.171875 -0.523438 1.546875 -0.953125 C 1.390625 -1.066406 1.28125 -1.195312 1.21875 -1.34375 C 1.15625 -1.5 1.132812 -1.648438 1.15625 -1.796875 C 1.175781 -1.953125 1.238281 -2.082031 1.34375 -2.1875 C 1.445312 -2.300781 1.570312 -2.367188 1.71875 -2.390625 C 1.875 -2.421875 2.050781 -2.390625 2.25 -2.296875 C 2.863281 -1.910156 3.460938 -1.640625 4.046875 -1.484375 C 4.628906 -1.335938 5.207031 -1.265625 5.78125 -1.265625 C 6.6875 -1.265625 7.367188 -1.429688 7.828125 -1.765625 C 8.285156 -2.097656 8.515625 -2.550781 8.515625 -3.125 C 8.515625 -3.570312 8.363281 -3.925781 8.0625 -4.1875 C 7.757812 -4.445312 7.285156 -4.648438 6.640625 -4.796875 L 4.46875 -5.28125 C 3.457031 -5.488281 2.707031 -5.84375 2.21875 -6.34375 C 1.738281 -6.851562 1.5 -7.515625 1.5 -8.328125 C 1.5 -9.046875 1.6875 -9.660156 2.0625 -10.171875 C 2.4375 -10.691406 2.960938 -11.09375 3.640625 -11.375 C 4.328125 -11.664062 5.128906 -11.8125 6.046875 -11.8125 C 6.742188 -11.8125 7.40625 -11.71875 8.03125 -11.53125 C 8.664062 -11.351562 9.234375 -11.066406 9.734375 -10.671875 C 9.898438 -10.554688 10.007812 -10.421875 10.0625 -10.265625 C 10.113281 -10.117188 10.117188 -9.96875 10.078125 -9.8125 C 10.046875 -9.664062 9.972656 -9.539062 9.859375 -9.4375 C 9.742188 -9.332031 9.609375 -9.269531 9.453125 -9.25 C 9.296875 -9.238281 9.128906 -9.289062 8.953125 -9.40625 C 8.472656 -9.726562 7.984375 -9.960938 7.484375 -10.109375 C 6.992188 -10.265625 6.515625 -10.34375 6.046875 -10.34375 C 5.148438 -10.34375 4.46875 -10.164062 4 -9.8125 C 3.539062 -9.457031 3.3125 -8.992188 3.3125 -8.421875 C 3.3125 -7.984375 3.453125 -7.617188 3.734375 -7.328125 C 4.023438 -7.046875 4.472656 -6.835938 5.078125 -6.703125 L 7.265625 -6.25 C 8.296875 -6.03125 9.066406 -5.675781 9.578125 -5.1875 C 10.097656 -4.707031 10.359375 -4.050781 10.359375 -3.21875 C 10.359375 -2.164062 9.9375 -1.328125 9.09375 -0.703125 C 8.25 -0.0859375 7.128906 0.21875 5.734375 0.21875 Z M 5.734375 0.21875 "></path></g></g></g><g fill="#2e2e2e" fill-opacity="1"><g transform="translate(85.107512, 23.873376)"><g><path d="M 5.734375 0.21875 C 5.015625 0.21875 4.289062 0.128906 3.5625 -0.046875 C 2.84375 -0.222656 2.171875 -0.523438 1.546875 -0.953125 C 1.390625 -1.066406 1.28125 -1.195312 1.21875 -1.34375 C 1.15625 -1.5 1.132812 -1.648438 1.15625 -1.796875 C 1.175781 -1.953125 1.238281 -2.082031 1.34375 -2.1875 C 1.445312 -2.300781 1.570312 -2.367188 1.71875 -2.390625 C 1.875 -2.421875 2.050781 -2.390625 2.25 -2.296875 C 2.863281 -1.910156 3.460938 -1.640625 4.046875 -1.484375 C 4.628906 -1.335938 5.207031 -1.265625 5.78125 -1.265625 C 6.6875 -1.265625 7.367188 -1.429688 7.828125 -1.765625 C 8.285156 -2.097656 8.515625 -2.550781 8.515625 -3.125 C 8.515625 -3.570312 8.363281 -3.925781 8.0625 -4.1875 C 7.757812 -4.445312 7.285156 -4.648438 6.640625 -4.796875 L 4.46875 -5.28125 C 3.457031 -5.488281 2.707031 -5.84375 2.21875 -6.34375 C 1.738281 -6.851562 1.5 -7.515625 1.5 -8.328125 C 1.5 -9.046875 1.6875 -9.660156 2.0625 -10.171875 C 2.4375 -10.691406 2.960938 -11.09375 3.640625 -11.375 C 4.328125 -11.664062 5.128906 -11.8125 6.046875 -11.8125 C 6.742188 -11.8125 7.40625 -11.71875 8.03125 -11.53125 C 8.664062 -11.351562 9.234375 -11.066406 9.734375 -10.671875 C 9.898438 -10.554688 10.007812 -10.421875 10.0625 -10.265625 C 10.113281 -10.117188 10.117188 -9.96875 10.078125 -9.8125 C 10.046875 -9.664062 9.972656 -9.539062 9.859375 -9.4375 C 9.742188 -9.332031 9.609375 -9.269531 9.453125 -9.25 C 9.296875 -9.238281 9.128906 -9.289062 8.953125 -9.40625 C 8.472656 -9.726562 7.984375 -9.960938 7.484375 -10.109375 C 6.992188 -10.265625 6.515625 -10.34375 6.046875 -10.34375 C 5.148438 -10.34375 4.46875 -10.164062 4 -9.8125 C 3.539062 -9.457031 3.3125 -8.992188 3.3125 -8.421875 C 3.3125 -7.984375 3.453125 -7.617188 3.734375 -7.328125 C 4.023438 -7.046875 4.472656 -6.835938 5.078125 -6.703125 L 7.265625 -6.25 C 8.296875 -6.03125 9.066406 -5.675781 9.578125 -5.1875 C 10.097656 -4.707031 10.359375 -4.050781 10.359375 -3.21875 C 10.359375 -2.164062 9.9375 -1.328125 9.09375 -0.703125 C 8.25 -0.0859375 7.128906 0.21875 5.734375 0.21875 Z M 5.734375 0.21875 "></path></g></g></g><g fill="#2e2e2e" fill-opacity="1"><g transform="translate(96.584212, 23.873376)"><g><path d="M 7.046875 0.21875 C 5.816406 0.21875 4.757812 -0.0195312 3.875 -0.5 C 2.988281 -0.988281 2.300781 -1.679688 1.8125 -2.578125 C 1.332031 -3.472656 1.09375 -4.539062 1.09375 -5.78125 C 1.09375 -6.988281 1.332031 -8.039062 1.8125 -8.9375 C 2.289062 -9.84375 2.945312 -10.546875 3.78125 -11.046875 C 4.613281 -11.554688 5.582031 -11.8125 6.6875 -11.8125 C 7.46875 -11.8125 8.164062 -11.679688 8.78125 -11.421875 C 9.40625 -11.160156 9.9375 -10.78125 10.375 -10.28125 C 10.8125 -9.789062 11.144531 -9.195312 11.375 -8.5 C 11.601562 -7.800781 11.71875 -7.015625 11.71875 -6.140625 C 11.71875 -5.878906 11.644531 -5.6875 11.5 -5.5625 C 11.363281 -5.445312 11.160156 -5.390625 10.890625 -5.390625 L 2.578125 -5.390625 L 2.578125 -6.65625 L 10.4375 -6.65625 L 10.046875 -6.34375 C 10.046875 -7.207031 9.914062 -7.9375 9.65625 -8.53125 C 9.40625 -9.132812 9.035156 -9.59375 8.546875 -9.90625 C 8.066406 -10.226562 7.460938 -10.390625 6.734375 -10.390625 C 5.921875 -10.390625 5.226562 -10.203125 4.65625 -9.828125 C 4.09375 -9.453125 3.664062 -8.929688 3.375 -8.265625 C 3.09375 -7.609375 2.953125 -6.84375 2.953125 -5.96875 L 2.953125 -5.828125 C 2.953125 -4.359375 3.304688 -3.242188 4.015625 -2.484375 C 4.722656 -1.722656 5.734375 -1.34375 7.046875 -1.34375 C 7.585938 -1.34375 8.125 -1.410156 8.65625 -1.546875 C 9.1875 -1.691406 9.707031 -1.929688 10.21875 -2.265625 C 10.4375 -2.410156 10.640625 -2.476562 10.828125 -2.46875 C 11.015625 -2.457031 11.160156 -2.398438 11.265625 -2.296875 C 11.378906 -2.203125 11.457031 -2.078125 11.5 -1.921875 C 11.539062 -1.765625 11.523438 -1.597656 11.453125 -1.421875 C 11.378906 -1.253906 11.238281 -1.109375 11.03125 -0.984375 C 10.507812 -0.597656 9.890625 -0.300781 9.171875 -0.09375 C 8.453125 0.113281 7.742188 0.21875 7.046875 0.21875 Z M 7.046875 0.21875 "></path></g></g></g><g fill="#2e2e2e" fill-opacity="1"><g transform="translate(109.277767, 23.873376)"><g><path d="M 2.765625 0.171875 C 2.453125 0.171875 2.210938 0.0820312 2.046875 -0.09375 C 1.890625 -0.269531 1.8125 -0.515625 1.8125 -0.828125 L 1.8125 -10.796875 C 1.8125 -11.109375 1.890625 -11.347656 2.046875 -11.515625 C 2.210938 -11.679688 2.445312 -11.765625 2.75 -11.765625 C 3.050781 -11.765625 3.285156 -11.679688 3.453125 -11.515625 C 3.617188 -11.347656 3.703125 -11.109375 3.703125 -10.796875 L 3.703125 -8.734375 L 3.4375 -9.03125 C 3.769531 -9.945312 4.3125 -10.640625 5.0625 -11.109375 C 5.820312 -11.578125 6.695312 -11.8125 7.6875 -11.8125 C 8.613281 -11.8125 9.378906 -11.644531 9.984375 -11.3125 C 10.597656 -10.976562 11.054688 -10.472656 11.359375 -9.796875 C 11.660156 -9.117188 11.8125 -8.265625 11.8125 -7.234375 L 11.8125 -0.828125 C 11.8125 -0.515625 11.726562 -0.269531 11.5625 -0.09375 C 11.394531 0.0820312 11.160156 0.171875 10.859375 0.171875 C 10.546875 0.171875 10.304688 0.0820312 10.140625 -0.09375 C 9.972656 -0.269531 9.890625 -0.515625 9.890625 -0.828125 L 9.890625 -7.109375 C 9.890625 -8.191406 9.675781 -8.984375 9.25 -9.484375 C 8.832031 -9.992188 8.160156 -10.25 7.234375 -10.25 C 6.171875 -10.25 5.320312 -9.914062 4.6875 -9.25 C 4.0625 -8.59375 3.75 -7.710938 3.75 -6.609375 L 3.75 -0.828125 C 3.75 -0.160156 3.421875 0.171875 2.765625 0.171875 Z M 2.765625 0.171875 "></path></g></g></g><g fill="#2e2e2e" fill-opacity="1"><g transform="translate(122.830289, 23.873376)"><g><path d="M 6.46875 0.21875 C 5.5625 0.21875 4.800781 0.0546875 4.1875 -0.265625 C 3.570312 -0.597656 3.113281 -1.078125 2.8125 -1.703125 C 2.507812 -2.335938 2.359375 -3.109375 2.359375 -4.015625 L 2.359375 -10.09375 L 0.765625 -10.09375 C 0.492188 -10.09375 0.285156 -10.160156 0.140625 -10.296875 C -0.00390625 -10.429688 -0.078125 -10.617188 -0.078125 -10.859375 C -0.078125 -11.097656 -0.00390625 -11.28125 0.140625 -11.40625 C 0.285156 -11.539062 0.492188 -11.609375 0.765625 -11.609375 L 2.359375 -11.609375 L 2.359375 -14.34375 C 2.359375 -14.664062 2.445312 -14.910156 2.625 -15.078125 C 2.800781 -15.242188 3.039062 -15.328125 3.34375 -15.328125 C 3.644531 -15.328125 3.878906 -15.242188 4.046875 -15.078125 C 4.210938 -14.910156 4.296875 -14.664062 4.296875 -14.34375 L 4.296875 -11.609375 L 7.3125 -11.609375 C 7.582031 -11.609375 7.785156 -11.539062 7.921875 -11.40625 C 8.066406 -11.28125 8.140625 -11.097656 8.140625 -10.859375 C 8.140625 -10.617188 8.066406 -10.429688 7.921875 -10.296875 C 7.785156 -10.160156 7.582031 -10.09375 7.3125 -10.09375 L 4.296875 -10.09375 L 4.296875 -4.203125 C 4.296875 -3.296875 4.484375 -2.609375 4.859375 -2.140625 C 5.242188 -1.671875 5.867188 -1.4375 6.734375 -1.4375 C 7.035156 -1.4375 7.289062 -1.46875 7.5 -1.53125 C 7.71875 -1.59375 7.898438 -1.625 8.046875 -1.625 C 8.191406 -1.632812 8.3125 -1.582031 8.40625 -1.46875 C 8.5 -1.363281 8.546875 -1.175781 8.546875 -0.90625 C 8.546875 -0.71875 8.507812 -0.539062 8.4375 -0.375 C 8.363281 -0.21875 8.238281 -0.109375 8.0625 -0.046875 C 7.875 0.0117188 7.625 0.0703125 7.3125 0.125 C 7.007812 0.1875 6.726562 0.21875 6.46875 0.21875 Z M 6.46875 0.21875 "></path></g></g></g><g fill="#2e2e2e" fill-opacity="1"><g transform="translate(131.324532, 23.873376)"><g><path d="M 2.765625 0.125 C 2.453125 0.125 2.210938 0.0273438 2.046875 -0.15625 C 1.890625 -0.34375 1.8125 -0.601562 1.8125 -0.9375 L 1.8125 -10.703125 C 1.8125 -11.035156 1.890625 -11.285156 2.046875 -11.453125 C 2.210938 -11.628906 2.453125 -11.71875 2.765625 -11.71875 C 3.066406 -11.71875 3.304688 -11.628906 3.484375 -11.453125 C 3.660156 -11.285156 3.75 -11.035156 3.75 -10.703125 L 3.75 -0.9375 C 3.75 -0.601562 3.664062 -0.34375 3.5 -0.15625 C 3.332031 0.0273438 3.085938 0.125 2.765625 0.125 Z M 2.765625 -14.390625 C 2.367188 -14.390625 2.054688 -14.5 1.828125 -14.71875 C 1.609375 -14.9375 1.5 -15.226562 1.5 -15.59375 C 1.5 -15.96875 1.609375 -16.253906 1.828125 -16.453125 C 2.054688 -16.660156 2.367188 -16.765625 2.765625 -16.765625 C 3.179688 -16.765625 3.492188 -16.660156 3.703125 -16.453125 C 3.921875 -16.253906 4.03125 -15.96875 4.03125 -15.59375 C 4.03125 -15.226562 3.921875 -14.9375 3.703125 -14.71875 C 3.492188 -14.5 3.179688 -14.390625 2.765625 -14.390625 Z M 2.765625 -14.390625 "></path></g></g></g><g fill="#2e2e2e" fill-opacity="1"><g transform="translate(136.860073, 23.873376)"><g><path d="M 5.46875 0.21875 C 4.675781 0.21875 3.960938 0.0585938 3.328125 -0.25 C 2.703125 -0.5625 2.207031 -0.988281 1.84375 -1.53125 C 1.476562 -2.070312 1.296875 -2.675781 1.296875 -3.34375 C 1.296875 -4.195312 1.515625 -4.867188 1.953125 -5.359375 C 2.390625 -5.859375 3.113281 -6.210938 4.125 -6.421875 C 5.132812 -6.628906 6.515625 -6.734375 8.265625 -6.734375 L 9.328125 -6.734375 L 9.328125 -5.46875 L 8.28125 -5.46875 C 6.988281 -5.46875 5.972656 -5.40625 5.234375 -5.28125 C 4.492188 -5.164062 3.976562 -4.960938 3.6875 -4.671875 C 3.394531 -4.390625 3.25 -3.988281 3.25 -3.46875 C 3.25 -2.8125 3.472656 -2.273438 3.921875 -1.859375 C 4.378906 -1.441406 5 -1.234375 5.78125 -1.234375 C 6.414062 -1.234375 6.972656 -1.382812 7.453125 -1.6875 C 7.941406 -2 8.328125 -2.414062 8.609375 -2.9375 C 8.890625 -3.457031 9.03125 -4.0625 9.03125 -4.75 L 9.03125 -7.46875 C 9.03125 -8.457031 8.828125 -9.171875 8.421875 -9.609375 C 8.023438 -10.046875 7.375 -10.265625 6.46875 -10.265625 C 5.914062 -10.265625 5.359375 -10.191406 4.796875 -10.046875 C 4.242188 -9.910156 3.65625 -9.679688 3.03125 -9.359375 C 2.8125 -9.242188 2.617188 -9.207031 2.453125 -9.25 C 2.296875 -9.289062 2.171875 -9.375 2.078125 -9.5 C 1.984375 -9.625 1.925781 -9.769531 1.90625 -9.9375 C 1.894531 -10.101562 1.929688 -10.265625 2.015625 -10.421875 C 2.109375 -10.585938 2.25 -10.71875 2.4375 -10.8125 C 3.132812 -11.164062 3.820312 -11.421875 4.5 -11.578125 C 5.1875 -11.734375 5.84375 -11.8125 6.46875 -11.8125 C 7.46875 -11.8125 8.296875 -11.648438 8.953125 -11.328125 C 9.609375 -11.003906 10.09375 -10.507812 10.40625 -9.84375 C 10.726562 -9.1875 10.890625 -8.34375 10.890625 -7.3125 L 10.890625 -0.828125 C 10.890625 -0.515625 10.8125 -0.269531 10.65625 -0.09375 C 10.507812 0.0820312 10.289062 0.171875 10 0.171875 C 9.695312 0.171875 9.46875 0.0820312 9.3125 -0.09375 C 9.15625 -0.269531 9.078125 -0.515625 9.078125 -0.828125 L 9.078125 -2.703125 L 9.28125 -2.703125 C 9.15625 -2.097656 8.910156 -1.578125 8.546875 -1.140625 C 8.191406 -0.710938 7.753906 -0.378906 7.234375 -0.140625 C 6.710938 0.0976562 6.125 0.21875 5.46875 0.21875 Z M 5.46875 0.21875 "></path></g></g></g><g fill="#2e2e2e" fill-opacity="1"><g transform="translate(149.505908, 23.873376)"><g><path d="M 5.34375 0.21875 C 4.195312 0.21875 3.320312 -0.128906 2.71875 -0.828125 C 2.113281 -1.535156 1.8125 -2.539062 1.8125 -3.84375 L 1.8125 -16.015625 C 1.8125 -16.335938 1.890625 -16.582031 2.046875 -16.75 C 2.210938 -16.914062 2.453125 -17 2.765625 -17 C 3.066406 -17 3.304688 -16.914062 3.484375 -16.75 C 3.660156 -16.582031 3.75 -16.335938 3.75 -16.015625 L 3.75 -3.984375 C 3.75 -3.128906 3.921875 -2.488281 4.265625 -2.0625 C 4.609375 -1.644531 5.113281 -1.4375 5.78125 -1.4375 C 5.925781 -1.4375 6.050781 -1.441406 6.15625 -1.453125 C 6.269531 -1.472656 6.382812 -1.484375 6.5 -1.484375 C 6.664062 -1.492188 6.785156 -1.453125 6.859375 -1.359375 C 6.929688 -1.265625 6.96875 -1.070312 6.96875 -0.78125 C 6.96875 -0.5 6.90625 -0.285156 6.78125 -0.140625 C 6.65625 0.00390625 6.445312 0.0976562 6.15625 0.140625 C 6.03125 0.160156 5.894531 0.175781 5.75 0.1875 C 5.601562 0.207031 5.46875 0.21875 5.34375 0.21875 Z M 5.34375 0.21875 "></path></g></g></g><g fill="#2e2e2e" fill-opacity="1"><g transform="translate(156.44914, 23.873376)"><g><path d="M 5.734375 0.21875 C 5.015625 0.21875 4.289062 0.128906 3.5625 -0.046875 C 2.84375 -0.222656 2.171875 -0.523438 1.546875 -0.953125 C 1.390625 -1.066406 1.28125 -1.195312 1.21875 -1.34375 C 1.15625 -1.5 1.132812 -1.648438 1.15625 -1.796875 C 1.175781 -1.953125 1.238281 -2.082031 1.34375 -2.1875 C 1.445312 -2.300781 1.570312 -2.367188 1.71875 -2.390625 C 1.875 -2.421875 2.050781 -2.390625 2.25 -2.296875 C 2.863281 -1.910156 3.460938 -1.640625 4.046875 -1.484375 C 4.628906 -1.335938 5.207031 -1.265625 5.78125 -1.265625 C 6.6875 -1.265625 7.367188 -1.429688 7.828125 -1.765625 C 8.285156 -2.097656 8.515625 -2.550781 8.515625 -3.125 C 8.515625 -3.570312 8.363281 -3.925781 8.0625 -4.1875 C 7.757812 -4.445312 7.285156 -4.648438 6.640625 -4.796875 L 4.46875 -5.28125 C 3.457031 -5.488281 2.707031 -5.84375 2.21875 -6.34375 C 1.738281 -6.851562 1.5 -7.515625 1.5 -8.328125 C 1.5 -9.046875 1.6875 -9.660156 2.0625 -10.171875 C 2.4375 -10.691406 2.960938 -11.09375 3.640625 -11.375 C 4.328125 -11.664062 5.128906 -11.8125 6.046875 -11.8125 C 6.742188 -11.8125 7.40625 -11.71875 8.03125 -11.53125 C 8.664062 -11.351562 9.234375 -11.066406 9.734375 -10.671875 C 9.898438 -10.554688 10.007812 -10.421875 10.0625 -10.265625 C 10.113281 -10.117188 10.117188 -9.96875 10.078125 -9.8125 C 10.046875 -9.664062 9.972656 -9.539062 9.859375 -9.4375 C 9.742188 -9.332031 9.609375 -9.269531 9.453125 -9.25 C 9.296875 -9.238281 9.128906 -9.289062 8.953125 -9.40625 C 8.472656 -9.726562 7.984375 -9.960938 7.484375 -10.109375 C 6.992188 -10.265625 6.515625 -10.34375 6.046875 -10.34375 C 5.148438 -10.34375 4.46875 -10.164062 4 -9.8125 C 3.539062 -9.457031 3.3125 -8.992188 3.3125 -8.421875 C 3.3125 -7.984375 3.453125 -7.617188 3.734375 -7.328125 C 4.023438 -7.046875 4.472656 -6.835938 5.078125 -6.703125 L 7.265625 -6.25 C 8.296875 -6.03125 9.066406 -5.675781 9.578125 -5.1875 C 10.097656 -4.707031 10.359375 -4.050781 10.359375 -3.21875 C 10.359375 -2.164062 9.9375 -1.328125 9.09375 -0.703125 C 8.25 -0.0859375 7.128906 0.21875 5.734375 0.21875 Z M 5.734375 0.21875 "></path></g></g></g></g></g><g transform="matrix(1, 0, 0, 1, 14, 32)"><g clip-path="url(#4b7b9c061f)"><g clip-path="url(#08851bcba9)"><g clip-path="url(#bb952d7884)"><g transform="matrix(1, 0, 0, 1, 1, 1)"><g clip-path="url(#9312dfce54)"><g clip-path="url(#3da93ce499)"><g clip-path="url(#85399f24c6)"><path fill="#afa4ff" d="M 0 0.0429688 L 83.917969 0.0429688 L 83.917969 23.753906 L 0 23.753906 Z M 0 0.0429688 " fill-opacity="1" fill-rule="nonzero"></path></g></g></g></g></g></g><g clip-path="url(#e2114a90da)"><g clip-path="url(#752c8d2835)"><g transform="matrix(1, 0, 0, 1, 1, 31)"><g clip-path="url(#dd5781e5d0)"><g clip-path="url(#87c652df3b)"><g clip-path="url(#a0bccdb4e6)"><path fill="#4b2e83" d="M 0 0.339844 L 62.242188 0.339844 L 62.242188 24.050781 L 0 24.050781 Z M 0 0.339844 " fill-opacity="1" fill-rule="nonzero"></path></g></g></g></g></g></g><g clip-path="url(#b61250cce5)"><g clip-path="url(#801cd9075b)"><g transform="matrix(1, 0, 0, 1, 1, 61)"><g clip-path="url(#8f24efb08f)"><g clip-path="url(#aaeb21fb39)"><g clip-path="url(#1c25ede90c)"><path fill="#4b2e83" d="M 0 0.246094 L 83.917969 0.246094 L 83.917969 23.957031 L 0 23.957031 Z M 0 0.246094 " fill-opacity="1" fill-rule="nonzero"></path></g></g></g></g></g></g><g clip-path="url(#f1b68e8795)"><g clip-path="url(#df260b549f)"><g transform="matrix(1, 0, 0, 1, 5, 10)"><g clip-path="url(#047d7bb9b1)"><g clip-path="url(#3f4e5629ed)"><g clip-path="url(#0fb1e9e45c)"><path fill="#f6f6f8" d="M 0.746094 0.476562 L 5.996094 0.476562 L 5.996094 5.933594 L 0.746094 5.933594 Z M 0.746094 0.476562 " fill-opacity="1" fill-rule="nonzero"></path></g></g></g></g></g></g><g clip-path="url(#9785104084)"><g clip-path="url(#159965d91b)"><g transform="matrix(1, 0, 0, 1, 13, 10)"><g clip-path="url(#edb32c0fdb)"><g clip-path="url(#a4faa8ef0a)"><g clip-path="url(#1c4358e8fe)"><path fill="#f6f6f8" d="M 0.0429688 0.476562 L 5.292969 0.476562 L 5.292969 5.933594 L 0.0429688 5.933594 Z M 0.0429688 0.476562 " fill-opacity="1" fill-rule="nonzero"></path></g></g></g></g></g></g></g></g></svg>